<svg id="logo" xmlns="http://www.w3.org/2000/svg" width="3058.744" height="698.526" viewBox="0 0 3058.744 698.526">
  <path id="Path_1697" data-name="Path 1697" d="M390.382,273.124l-.313-186.5L298.83,244.187h-7.782L199.764,87.247V273.124H184.2V55h13.417l97.5,168.613L392.529,55h13.1l.313,217.99Z" transform="translate(636.37 187.454)" fill="#008337"/>
  <path id="Path_1698" data-name="Path 1698" d="M401.17,258.812v14.312H250.76V55H396.474V69.357h-129.7v86.051H383.057v14.044H266.771V258.9Z" transform="translate(867.5 187.454)" fill="#008337"/>
  <path id="Path_1699" data-name="Path 1699" d="M448.645,273.124l-51.97-72.857a153.92,153.92,0,0,1-21.2,1.565H313.217v71.292H297.34V55h78.135c54.833,0,87.84,27.416,87.84,73.528,0,34.528-18.7,58.545-51.076,68.161l54.475,76.3Zm-73.17-85.291c46.693,0,71.56-21.826,71.56-59.171s-24.957-59.171-71.56-59.171H313.217V187.833Z" transform="translate(1029.249 187.454)" fill="#008337"/>
  <path id="Path_1700" data-name="Path 1700" d="M342.8,165.205c0-63.2,48.258-110.515,113.333-110.515S569.466,101.7,569.466,165.205s-48.571,110.56-113.333,110.56S342.8,228.447,342.8,165.205Zm210.476,0c0-55.1-41.728-95.89-97.143-95.89s-97.456,40.789-97.456,95.89,41.728,95.935,97.456,95.935S553.276,220.351,553.276,165.205Z" transform="translate(1187.109 186.378)" fill="#008337"/>
  <path id="Path_1701" data-name="Path 1701" d="M603.011,55V272.99h-50.45V183.54H453.54v89.45H403.09V55h50.45v86.1h99.021V55Z" transform="translate(1396.466 187.454)" fill="#008337"/>
  <path id="Path_1702" data-name="Path 1702" d="M628.133,232.648V272.9H459.34V55H624.062V95.521H509.477v47.453H610.689V182.2H509.477v50.45Z" transform="translate(1591.794 187.454)" fill="#008337"/>
  <path id="Path_1703" data-name="Path 1703" d="M671.842,226.431H570.629l-19.277,46.693h-51.7L596.793,55h49.824l97.5,217.99H691.163ZM655.965,188.1l-34.573-83.457L586.819,188.1Z" transform="translate(1731.77 187.454)" fill="#008337"/>
  <path id="Path_1704" data-name="Path 1704" d="M559.38,55h50.45V232.022H719.138v41.1H559.38Z" transform="translate(1939.183 187.454)" fill="#008337"/>
  <path id="Path_1705" data-name="Path 1705" d="M661.136,96.236H591.41V55H781.357V96.1H711.586V272.99h-50.45Z" transform="translate(2050.407 187.454)" fill="#008337"/>
  <path id="Path_1706" data-name="Path 1706" d="M839.85,55V272.99H789.4V183.54H690.38v89.45H639.93V55h50.45v86.1H789.4V55Z" transform="translate(2218.893 187.454)" fill="#008337"/>
  <path id="Path_1707" data-name="Path 1707" d="M427.131,50.84l85.425,432.4A349.481,349.481,0,0,1,1.93,237.656H141.875L207.62,119.493,315.676,368.611Z" transform="translate(3.437 173.009)" fill="#008337"/>
  <path id="Path_1708" data-name="Path 1708" d="M699.245,350.048A348.855,348.855,0,0,1,557.422,631.055L443.418,54.1l-128,365.135-98.8-227.382L119.609,366.506H1.088C.864,361.05.73,355.594.73,350.048.73,157.158,157.1.79,349.988.79S699.245,157.158,699.245,350.048Z" transform="translate(-0.73 -0.79)" fill="#008337"/>
</svg>
