<svg xmlns="http://www.w3.org/2000/svg" width="63.612" height="55.661" viewBox="0 0 63.612 55.661">
  <g id="Group_518" data-name="Group 518" transform="translate(-339.229 -3989.72)">
    <path id="Icon_awesome-quote-left" data-name="Icon awesome-quote-left" d="M57.648,30.08H47.709V22.129a7.959,7.959,0,0,1,7.951-7.951h.994A2.975,2.975,0,0,0,59.636,11.2V5.232A2.975,2.975,0,0,0,56.654,2.25H55.66A19.873,19.873,0,0,0,35.782,22.129V51.947a5.965,5.965,0,0,0,5.964,5.964h15.9a5.965,5.965,0,0,0,5.964-5.964v-15.9A5.965,5.965,0,0,0,57.648,30.08Zm-35.782,0H11.927V22.129a7.959,7.959,0,0,1,7.951-7.951h.994A2.975,2.975,0,0,0,23.854,11.2V5.232A2.975,2.975,0,0,0,20.873,2.25h-.994A19.873,19.873,0,0,0,0,22.129V51.947A5.965,5.965,0,0,0,5.964,57.91h15.9a5.965,5.965,0,0,0,5.964-5.964v-15.9A5.965,5.965,0,0,0,21.867,30.08Z" transform="translate(339.229 3987.47)" fill="#008341"/>
  </g>
</svg>
