<svg id="register" xmlns="http://www.w3.org/2000/svg" width="706" height="562.508" viewBox="0 0 706 562.508">
  <circle id="Ellipse_1" data-name="Ellipse 1" cx="22.732" cy="22.732" r="22.732" transform="translate(506.906 17.731)" fill="#2f2e41"/>
  <path id="Path_1" data-name="Path 1" d="M831.712,116.9s-3.288,41.406-7.234,41.406,46.032-1.949,46.032-1.949-21.043-27.279-10.522-36.048S831.712,116.9,831.712,116.9Z" transform="translate(-318.138 -62.568)" fill="#9f616a"/>
  <path id="Path_2" data-name="Path 2" d="M831.712,116.9s-3.288,41.406-7.234,41.406,46.032-1.949,46.032-1.949-21.043-27.279-10.522-36.048S831.712,116.9,831.712,116.9Z" transform="translate(-318.138 -62.568)" opacity="0.1"/>
  <path id="Path_3" data-name="Path 3" d="M608.656,631.288a197.667,197.667,0,1,1,139.771-57.9A197.667,197.667,0,0,1,608.656,631.288Zm0-393.284c-107.864,0-195.618,87.754-195.618,195.618s87.754,195.618,195.618,195.618,195.618-87.754,195.618-195.618S716.521,238,608.656,238Z" transform="translate(-187.037 -100.841)" fill="#3f3d56"/>
  <path id="Path_4" data-name="Path 4" d="M878.279,250.335,855.3,256.91l32.1-1.464a28.261,28.261,0,0,1,19.815,6.667c5.718,4.95,10.327,12.8,5.889,24.41-8.876,23.215-22.532,45.064-22.532,45.064l-8.876,17.07s-18.435,2.731-19.118-2.731,0-8.193,3.414-10.925a16.725,16.725,0,0,0,5.462-10.925c0-2.731-.683-5.462,1.366-6.828s2.731-3.414,2.731-7.511,11.844-22.1,11.844-22.1-24.817-8.623-35.5-1.366-32.328,39.172-32.328,39.172a20.545,20.545,0,0,0-3.528,5.013,17.719,17.719,0,0,1-4.463,5.551c-1.986,1.745-.157,6.551.481,7.189.683.683,7.511,27.994,7.511,27.994s7.511,12.973-.683,13.656-15.7,1.366-16.387,0a37.12,37.12,0,0,0-2.731-5.462c-2.048-3.414,0-10.925,0-10.925s-19.8-25.263-13.656-40.967,19.118-51.209,19.118-51.209l19.8-8.193,36.188-12.973Z" transform="translate(-305.659 -105.409)" fill="#2f2e41"/>
  <path id="Path_5" data-name="Path 5" d="M698.452,130.177l-27.994-5.462s-6.828-23.215-15.021-20.484,5.462,25.946,5.462,25.946l38.919,17.752Z" transform="translate(-263.755 -58.992)" fill="#a0616a"/>
  <path id="Path_6" data-name="Path 6" d="M961.992,176.335l12.29,15.7s17.752-.683,12.29,8.876-17.752,4.1-18.435,2.048-20.484-19.8-20.484-19.8Z" transform="translate(-357.281 -81.935)" fill="#a0616a"/>
  <path id="Path_7" data-name="Path 7" d="M822.342,142.476,804.59,156.131l-10.925-16.387L709,134.965v27.994c20.836-6.016,40.015-7.88,55.306,0,19.354,25.771,23.613,53.757,11.37,84.162l99.924-35c-29.949-11.152-43.851-27.32-39.6-49.161l34.822,12.29,21.166-15.7C873.058,146.809,844.889,138.82,822.342,142.476Z" transform="translate(-281.576 -68.812)" fill="#008341"/>
  <ellipse id="Ellipse_2" data-name="Ellipse 2" cx="353" cy="26.629" rx="353" ry="26.629" transform="translate(0 509.251)" fill="#3f3d56"/>
  <ellipse id="Ellipse_3" data-name="Ellipse 3" cx="238.633" cy="17.752" rx="238.633" ry="17.752" transform="translate(15.704 517.444)" opacity="0.1"/>
  <path id="Path_8" data-name="Path 8" d="M1018.029,753.965c-2.275,19.931,9.978,37.7,9.978,37.7s15.941-14.548,18.215-34.479-9.978-37.7-9.978-37.7S1020.3,734.034,1018.029,753.965Z" transform="translate(-379.516 -254.231)" fill="#2f2e41"/>
  <path id="Path_9" data-name="Path 9" d="M1016.9,755.77c8.2,18.308,1.9,38.949,1.9,38.949S999.2,785.675,991,767.367s-1.9-38.949-1.9-38.949S1008.7,737.462,1016.9,755.77Z" transform="translate(-369.697 -257.064)" fill="#008341"/>
  <circle id="Ellipse_4" data-name="Ellipse 4" cx="76.51" cy="76.51" r="76.51" transform="translate(350.612 381.809)" fill="#f2f2f2"/>
  <path id="Path_10" data-name="Path 10" d="M525.983,503.3l-18.848,47.12-68.155.547-22.2.179-52.69.424-22.194.179-52.69.424-22.194.179-52.69.434-22.194.179-35.566.283-6.88-14.079-8.925-18.236-4.929-10.093L133,503.3l16.916-53.576a25.828,25.828,0,0,1,24.625-18.047H482.312a25.833,25.833,0,0,1,24.324,17.171l1.96,5.522Z" transform="translate(-98.861 -162.933)" fill="#008341"/>
  <rect id="Rectangle_12" data-name="Rectangle 12" width="392.983" height="98.953" transform="translate(34.139 340.366)" fill="#008341"/>
  <rect id="Rectangle_13" data-name="Rectangle 13" width="392.983" height="98.953" transform="translate(34.139 340.366)" opacity="0.1"/>
  <rect id="Rectangle_14" data-name="Rectangle 14" width="11.592" height="11.592" transform="translate(421.326 204.445)" fill="#3f3d56"/>
  <rect id="Rectangle_15" data-name="Rectangle 15" width="11.592" height="11.592" transform="translate(452.626 452.523)" fill="#3f3d56"/>
  <rect id="Rectangle_16" data-name="Rectangle 16" width="251.622" height="316.648" transform="translate(104.349 212.669)" fill="#f2f2f2"/>
  <rect id="Rectangle_17" data-name="Rectangle 17" width="73.507" height="10.366" transform="translate(157.123 235.286)" fill="#3f3d56"/>
  <rect id="Rectangle_18" data-name="Rectangle 18" width="221.466" height="4.712" transform="translate(118.484 277.695)" fill="#e6e6e6"/>
  <rect id="Rectangle_19" data-name="Rectangle 19" width="221.466" height="4.712" transform="translate(118.484 292.774)" fill="#e6e6e6"/>
  <rect id="Rectangle_20" data-name="Rectangle 20" width="221.466" height="4.712" transform="translate(118.484 307.852)" fill="#e6e6e6"/>
  <rect id="Rectangle_21" data-name="Rectangle 21" width="221.466" height="4.712" transform="translate(118.484 322.93)" fill="#e6e6e6"/>
  <rect id="Rectangle_22" data-name="Rectangle 22" width="221.466" height="4.712" transform="translate(118.484 338.009)" fill="#e6e6e6"/>
  <rect id="Rectangle_23" data-name="Rectangle 23" width="221.466" height="4.712" transform="translate(118.484 353.087)" fill="#e6e6e6"/>
  <path id="Path_11" data-name="Path 11" d="M262.891,395.395a16.021,16.021,0,1,1,16.021-16.021,16.021,16.021,0,0,1-16.021,16.021Zm0-30.157a14.136,14.136,0,1,0,14.136,14.136,14.136,14.136,0,0,0-14.136-14.136Z" transform="translate(-134.982 -141.26)" fill="#008341"/>
  <path id="Path_12" data-name="Path 12" d="M442.983,695.457H50V498.495l50.89,39.581,293.088-1.885,49.006-37.7Z" transform="translate(-15.861 -158.13)" fill="#3f3d56"/>
  <rect id="Rectangle_24" data-name="Rectangle 24" width="73.507" height="10.366" transform="translate(54.401 491.621)" fill="#f2f2f2"/>
  <path id="Path_13" data-name="Path 13" d="M215.365,721.978a8.193,8.193,0,1,1,8.193-8.193,8.193,8.193,0,0,1-8.193,8.193Zm0-15.021a6.828,6.828,0,1,0,6.828,6.828,6.828,6.828,0,0,0-6.828-6.828Z" transform="translate(-122.389 -249.823)" fill="#fff"/>
  <path id="Path_14" data-name="Path 14" d="M913.478,389.053s4.1,15.7,5.462,16.387,16.387,13.656,6.145,15.7-17.752,1.366-19.8-.683-1.366-4.1-4.78-4.78-9.559-2.731-8.876-7.511,4.1-17.752,6.145-19.118S913.478,389.053,913.478,389.053Z" transform="translate(-339.492 -149.22)" fill="#2f2e41"/>
  <path id="Path_15" data-name="Path 15" d="M824.276,440.335s6.145,4.78,2.731,13.656-8.193,18.435-8.193,18.435-5.462,17.07-14.339,14.339c-3.606-1.11-5.409-4.135-6.279-7.336a17.545,17.545,0,0,1,2.48-14.277l5.165-7.747,5.462-14.339Z" transform="translate(-309.693 -165.68)" fill="#2f2e41"/>
  <path id="Path_16" data-name="Path 16" d="M798.659,509.471c12.24,0,27.383-4.055,42.14-18.71,36.126-35.879,70.448-39.478,70.79-39.511l-.127-1.36c-.347.033-35.155,3.681-71.625,39.9-18.74,18.612-38.083,19.752-51.009,17.43a63.747,63.747,0,0,1-23.9-9.631l-.807,1.1a65.17,65.17,0,0,0,24.408,9.864,57.019,57.019,0,0,0,10.127.916Z" transform="translate(-299.063 -168.711)" fill="#2f2e41"/>
  <circle id="Ellipse_5" data-name="Ellipse 5" cx="8.193" cy="8.193" r="8.193" transform="translate(585.934 294.797)" fill="#2f2e41"/>
  <circle id="Ellipse_6" data-name="Ellipse 6" cx="8.193" cy="8.193" r="8.193" transform="translate(527.898 333.033)" fill="#2f2e41"/>
  <circle id="Ellipse_7" data-name="Ellipse 7" cx="16.384" cy="16.384" r="16.384" transform="translate(511.413 36.952)" fill="#a0616a"/>
  <path id="Path_17" data-name="Path 17" d="M871.711,38.078a12.426,12.426,0,0,1-7.17,4.929c-5.014,1.343-.041,8.877-.041,8.877a4.64,4.64,0,0,1,.8-5.641C867.908,43.341,872.1,41.358,871.711,38.078Z" transform="translate(-330.206 -38.078)" fill="#2f2e41"/>
  <circle id="Ellipse_8" data-name="Ellipse 8" cx="6.335" cy="6.335" r="6.335" transform="translate(527.07 9.278)" fill="#2f2e41"/>
  <path id="Path_18" data-name="Path 18" d="M867.616,65.61c-5.165-1.953-13.764-2.944-18.188-2.267l.607-4.431c4.253,2.2,12.813,3.231,18.188,2.267Z" transform="translate(-326.122 -44.687)" fill="#3f3d56"/>
  <path id="Path_19" data-name="Path 19" d="M846.307,76.044s-6.473,10.766-21.524,14.8-.123,26.648-.123,26.648-5.428-8.225,2.4-16.935S847.491,85.889,846.307,76.044Z" transform="translate(-316.172 -50.122)" fill="#2f2e41"/>
  <path id="Path_20" data-name="Path 20" d="M860.108,75.086s6.218,14.788,13.044,16.186,6.309,24.764-4.367,28.268c0,0,7.784-13.7,1.13-22.885S859.059,80.206,860.108,75.086Z" transform="translate(-329.459 -49.818)" fill="#2f2e41"/>
</svg>
