<svg xmlns="http://www.w3.org/2000/svg" width="55.239" height="55.339" viewBox="0 0 55.239 55.339">
  <path id="Icon_feather-phone-call" data-name="Icon feather-phone-call" d="M35.425,11.473a12.466,12.466,0,0,1,9.848,9.848M35.425,1.5A22.439,22.439,0,0,1,55.247,21.3m-2.493,19.9v7.48a4.986,4.986,0,0,1-5.435,4.986A49.341,49.341,0,0,1,25.8,46,48.618,48.618,0,0,1,10.842,31.045,49.341,49.341,0,0,1,3.188,9.428,4.986,4.986,0,0,1,8.15,3.993h7.48a4.986,4.986,0,0,1,4.986,4.288,32.013,32.013,0,0,0,1.745,7.006,4.986,4.986,0,0,1-1.122,5.261l-3.166,3.166A39.892,39.892,0,0,0,33.032,38.674L36.2,35.508a4.986,4.986,0,0,1,5.261-1.122,32.013,32.013,0,0,0,7.006,1.745A4.986,4.986,0,0,1,52.753,41.192Z" transform="translate(-1.666 0.156)" fill="none" stroke="#fff" stroke-linecap="round" stroke-linejoin="round" stroke-width="3"/>
</svg>
